<svg xmlns="http://www.w3.org/2000/svg" xmlns:xlink="http://www.w3.org/1999/xlink" width="48" zoomAndPan="magnify" viewBox="0 0 36 36.000001" height="48" preserveAspectRatio="xMidYMid meet" version="1.0"><defs><clipPath id="9d63aabfa7"><path d="M 7.679688 0.441406 L 14.320312 0.441406 L 14.320312 7.085938 L 7.679688 7.085938 Z M 7.679688 0.441406 " clip-rule="nonzero"/></clipPath><clipPath id="a6043de105"><path d="M 11 0.441406 C 9.164062 0.441406 7.679688 1.929688 7.679688 3.761719 C 7.679688 5.597656 9.164062 7.085938 11 7.085938 C 12.835938 7.085938 14.320312 5.597656 14.320312 3.761719 C 14.320312 1.929688 12.835938 0.441406 11 0.441406 Z M 11 0.441406 " clip-rule="nonzero"/></clipPath><clipPath id="9bf8ec99a4"><path d="M 0.679688 0.441406 L 7.320312 0.441406 L 7.320312 7.085938 L 0.679688 7.085938 Z M 0.679688 0.441406 " clip-rule="nonzero"/></clipPath><clipPath id="fa7cf82b3f"><path d="M 4 0.441406 C 2.164062 0.441406 0.679688 1.929688 0.679688 3.761719 C 0.679688 5.597656 2.164062 7.085938 4 7.085938 C 5.835938 7.085938 7.320312 5.597656 7.320312 3.761719 C 7.320312 1.929688 5.835938 0.441406 4 0.441406 Z M 4 0.441406 " clip-rule="nonzero"/></clipPath><clipPath id="ae3d1211ac"><rect x="0" width="8" y="0" height="8"/></clipPath><clipPath id="d62ee9e6f6"><path d="M 1 8 L 14 8 L 14 26 L 1 26 Z M 1 8 " clip-rule="nonzero"/></clipPath><clipPath id="35f7de43de"><path d="M 9.621094 7.085938 L 15.179688 10.355469 L 5.621094 26.59375 L 0.0664062 23.324219 Z M 9.621094 7.085938 " clip-rule="nonzero"/></clipPath><clipPath id="2c64a86ca4"><path d="M 12.398438 8.722656 C 13.136719 9.15625 13.671875 9.863281 13.886719 10.691406 C 14.101562 11.519531 13.976562 12.398438 13.542969 13.136719 L 7.261719 23.808594 C 6.828125 24.542969 6.117188 25.078125 5.289062 25.292969 C 4.464844 25.507812 3.585938 25.382812 2.847656 24.949219 C 2.109375 24.515625 1.574219 23.808594 1.363281 22.980469 C 1.148438 22.152344 1.269531 21.273438 1.703125 20.535156 L 7.988281 9.863281 C 8.421875 9.128906 9.128906 8.59375 9.957031 8.378906 C 10.785156 8.164062 11.664062 8.289062 12.398438 8.722656 Z M 12.398438 8.722656 " clip-rule="nonzero"/></clipPath><clipPath id="ccbe1b8239"><path d="M 0 0.144531 L 13 0.144531 L 13 17.65625 L 0 17.65625 Z M 0 0.144531 " clip-rule="nonzero"/></clipPath><clipPath id="ec106c6953"><path d="M 8.621094 -0.914062 L 14.179688 2.355469 L 4.621094 18.59375 L -0.933594 15.324219 Z M 8.621094 -0.914062 " clip-rule="nonzero"/></clipPath><clipPath id="85c4b1bdc6"><path d="M 11.398438 0.722656 C 12.136719 1.15625 12.671875 1.863281 12.886719 2.691406 C 13.101562 3.519531 12.976562 4.398438 12.542969 5.136719 L 6.261719 15.808594 C 5.828125 16.542969 5.117188 17.078125 4.289062 17.292969 C 3.464844 17.507812 2.585938 17.382812 1.847656 16.949219 C 1.109375 16.515625 0.574219 15.808594 0.363281 14.980469 C 0.148438 14.152344 0.269531 13.273438 0.703125 12.535156 L 6.988281 1.863281 C 7.421875 1.128906 8.128906 0.59375 8.957031 0.378906 C 9.785156 0.164062 10.664062 0.289062 11.398438 0.722656 Z M 11.398438 0.722656 " clip-rule="nonzero"/></clipPath><clipPath id="75dc908845"><rect x="0" width="13" y="0" height="18"/></clipPath><clipPath id="5ba9dbfd66"><path d="M 8 8 L 21 8 L 21 26 L 8 26 Z M 8 8 " clip-rule="nonzero"/></clipPath><clipPath id="32095f07a8"><path d="M 6.816406 10.359375 L 12.371094 7.085938 L 21.933594 23.320312 L 16.378906 26.589844 Z M 6.816406 10.359375 " clip-rule="nonzero"/></clipPath><clipPath id="318f02de98"><path d="M 9.59375 8.722656 C 10.332031 8.289062 11.210938 8.164062 12.039062 8.378906 C 12.867188 8.59375 13.574219 9.125 14.007812 9.863281 L 20.292969 20.535156 C 20.726562 21.269531 20.851562 22.148438 20.636719 22.976562 C 20.421875 23.804688 19.890625 24.515625 19.152344 24.949219 C 18.417969 25.382812 17.535156 25.503906 16.710938 25.292969 C 15.882812 25.078125 15.171875 24.542969 14.738281 23.804688 L 8.453125 13.136719 C 8.019531 12.398438 7.894531 11.519531 8.109375 10.691406 C 8.324219 9.863281 8.859375 9.15625 9.59375 8.722656 Z M 9.59375 8.722656 " clip-rule="nonzero"/></clipPath><clipPath id="340dc84a8e"><path d="M 0 0.144531 L 13 0.144531 L 13 17.65625 L 0 17.65625 Z M 0 0.144531 " clip-rule="nonzero"/></clipPath><clipPath id="6e0a549155"><path d="M -1.183594 2.359375 L 4.371094 -0.914062 L 13.933594 15.320312 L 8.378906 18.589844 Z M -1.183594 2.359375 " clip-rule="nonzero"/></clipPath><clipPath id="dadd1800be"><path d="M 1.59375 0.722656 C 2.332031 0.289062 3.210938 0.164062 4.039062 0.378906 C 4.867188 0.59375 5.574219 1.125 6.007812 1.863281 L 12.292969 12.535156 C 12.726562 13.269531 12.851562 14.148438 12.636719 14.976562 C 12.421875 15.804688 11.890625 16.515625 11.152344 16.949219 C 10.417969 17.382812 9.535156 17.503906 8.710938 17.292969 C 7.882812 17.078125 7.171875 16.542969 6.738281 15.804688 L 0.453125 5.136719 C 0.0195312 4.398438 -0.105469 3.519531 0.109375 2.691406 C 0.324219 1.863281 0.859375 1.15625 1.59375 0.722656 Z M 1.59375 0.722656 " clip-rule="nonzero"/></clipPath><clipPath id="060e35ee36"><rect x="0" width="13" y="0" height="18"/></clipPath><clipPath id="38ca916eea"><rect x="0" width="22" y="0" height="27"/></clipPath></defs><g transform="matrix(1, 0, 0, 1, 7, 4)"><g clip-path="url(#38ca916eea)"><g clip-path="url(#9d63aabfa7)"><g clip-path="url(#a6043de105)"><g transform="matrix(1, 0, 0, 1, 7, 0.000000000000010658)"><g clip-path="url(#ae3d1211ac)"><g clip-path="url(#9bf8ec99a4)"><g clip-path="url(#fa7cf82b3f)"><path fill="#1b17ff" d="M 0.679688 0.441406 L 7.320312 0.441406 L 7.320312 7.085938 L 0.679688 7.085938 Z M 0.679688 0.441406 " fill-opacity="1" fill-rule="nonzero"/></g></g></g></g></g></g><g clip-path="url(#d62ee9e6f6)"><g clip-path="url(#35f7de43de)"><g clip-path="url(#2c64a86ca4)"><g transform="matrix(1, 0, 0, 1, 1, 8)"><g clip-path="url(#75dc908845)"><g clip-path="url(#ccbe1b8239)"><g clip-path="url(#ec106c6953)"><g clip-path="url(#85c4b1bdc6)"><path fill="#1b17ff" d="M 8.621094 -0.914062 L 14.179688 2.355469 L 4.621094 18.59375 L -0.933594 15.324219 Z M 8.621094 -0.914062 " fill-opacity="1" fill-rule="nonzero"/></g></g></g></g></g></g></g></g><g clip-path="url(#5ba9dbfd66)"><g clip-path="url(#32095f07a8)"><g clip-path="url(#318f02de98)"><g transform="matrix(1, 0, 0, 1, 8, 8)"><g clip-path="url(#060e35ee36)"><g clip-path="url(#340dc84a8e)"><g clip-path="url(#6e0a549155)"><g clip-path="url(#dadd1800be)"><path fill="#1b17ff" d="M -1.183594 2.359375 L 4.371094 -0.914062 L 13.933594 15.320312 L 8.378906 18.589844 Z M -1.183594 2.359375 " fill-opacity="1" fill-rule="nonzero"/></g></g></g></g></g></g></g></g></g></g></svg>